<svg xmlns="http://www.w3.org/2000/svg" height="100" width="100" viewBox="0 0 51.642 51.642" fill="#aac148"><path d="M38.92 17.049H12.722a1.055 1.055 0 0 0-1.055 1.055v21.969a1.055 1.055 0 0 0 1.055 1.055h4.67v7.404a3.11 3.11 0 0 0 6.22 0v-7.404h4.35v7.404a3.11 3.11 0 0 0 6.22 0v-7.404h4.735a1.055 1.055 0 0 0 1.055-1.055V18.105a1.055 1.055 0 0 0-1.055-1.055m-31.688-.005a3.11 3.11 0 0 0-3.11 3.11v12.633a3.11 3.11 0 0 0 6.22 0V20.155a3.11 3.11 0 0 0-3.11-3.11m37.178 0a3.11 3.11 0 0 0-3.11 3.11v12.633a3.11 3.11 0 0 0 6.22 0V20.155a3.11 3.11 0 0 0-3.11-3.11m-31.476-1.536h25.712c.671 0 1.171-.618 1.033-1.274a14.2 14.2 0 0 0-6.933-9.443L34.941.826a.556.556 0 0 0-.973-.539l-2.215 3.996c-1.814-.842-3.835-1.312-5.967-1.312s-4.153.47-5.967 1.312L17.609.286a.556.556 0 0 0-.972.539l2.198 3.966a14.2 14.2 0 0 0-6.933 9.443 1.056 1.056 0 0 0 1.033 1.274m20.528-5.91a1.196 1.196 0 1 1-2.392 0 1.196 1.196 0 0 1 2.392 0M19.314 8.402a1.196 1.196 0 1 1 0 2.392 1.196 1.196 0 0 1 0-2.392"/></svg>